<svg width="188" height="188" viewBox="0 0 188 188" fill="none" xmlns="http://www.w3.org/2000/svg">
<path d="M53.375 128.375C55.0311 128.38 56.6179 129.04 57.789 130.211C58.96 131.382 59.6201 132.969 59.625 134.625C59.6127 136.279 58.9503 137.861 57.7809 139.031C56.6114 140.2 55.0288 140.863 53.375 140.875H22.125V128.375H53.375Z" fill="#E0E0E2"/>
<path d="M178.375 3.375H172.125C168.673 3.375 165.875 6.17322 165.875 9.625V178.375C165.875 181.827 168.673 184.625 172.125 184.625H178.375C181.827 184.625 184.625 181.827 184.625 178.375V9.625C184.625 6.17322 181.827 3.375 178.375 3.375Z" fill="#A78966"/>
<path d="M184.625 9.625V178.375C184.62 180.031 183.96 181.618 182.789 182.789C181.618 183.96 180.031 184.62 178.375 184.625H172.125C171.596 184.631 171.069 184.558 170.562 184.406C171.901 184.061 173.087 183.281 173.935 182.19C174.783 181.099 175.246 179.757 175.25 178.375V9.625C175.246 8.24288 174.783 6.90123 173.935 5.80994C173.087 4.71865 171.901 3.93928 170.562 3.59375C171.069 3.4425 171.596 3.36875 172.125 3.375H178.375C180.031 3.37995 181.618 4.04002 182.789 5.21105C183.96 6.38208 184.62 7.96892 184.625 9.625Z" fill="#806749"/>
<path d="M153.375 140.875H22.125V165.875H165.875V153.375C165.875 150.06 164.558 146.88 162.214 144.536C159.87 142.192 156.69 140.875 153.375 140.875Z" fill="#F7AFD1"/>
<path d="M153.375 40.875H22.125V65.875H165.875V53.375C165.875 50.0598 164.558 46.8804 162.214 44.5362C159.87 42.192 156.69 40.875 153.375 40.875Z" fill="#F7AFD1"/>
<path d="M165.875 53.375V65.875H153.375V53.375C153.375 50.0598 152.058 46.8804 149.714 44.5362C147.37 42.192 144.19 40.875 140.875 40.875H153.375C156.69 40.875 159.87 42.192 162.214 44.5362C164.558 46.8804 165.875 50.0598 165.875 53.375Z" fill="#F490C0"/>
<path d="M165.875 153.375V165.875H153.375V153.375C153.375 150.06 152.058 146.88 149.714 144.536C147.37 142.192 144.19 140.875 140.875 140.875H153.375C156.69 140.875 159.87 142.192 162.214 144.536C164.558 146.88 165.875 150.06 165.875 153.375Z" fill="#F490C0"/>
<path d="M53.375 28.375C55.0311 28.3799 56.6179 29.04 57.789 30.211C58.96 31.3821 59.6201 32.9689 59.625 34.625C59.6127 36.2788 58.9503 37.8614 57.7809 39.0309C56.6114 40.2003 55.0288 40.8627 53.375 40.875H22.125V28.375H53.375Z" fill="#E0E0E2"/>
<path d="M59.625 34.625C59.6127 36.2788 58.9503 37.8614 57.7809 39.0309C56.6114 40.2003 55.0288 40.8627 53.375 40.875H40.875C42.5288 40.8627 44.1114 40.2003 45.2809 39.0309C46.4503 37.8614 47.1127 36.2788 47.125 34.625C47.1201 32.9689 46.46 31.3821 45.289 30.211C44.1179 29.04 42.5311 28.3799 40.875 28.375H53.375C55.0311 28.3799 56.6179 29.04 57.789 30.211C58.96 31.3821 59.6201 32.9689 59.625 34.625Z" fill="#C6C5CA"/>
<path d="M59.625 134.625C59.6127 136.279 58.9503 137.861 57.7809 139.031C56.6114 140.2 55.0288 140.863 53.375 140.875H40.875C42.5288 140.863 44.1114 140.2 45.2809 139.031C46.4503 137.861 47.1127 136.279 47.125 134.625C47.1201 132.969 46.46 131.382 45.289 130.211C44.1179 129.04 42.5311 128.38 40.875 128.375H53.375C55.0311 128.38 56.6179 129.04 57.789 130.211C58.96 131.382 59.6201 132.969 59.625 134.625Z" fill="#C6C5CA"/>
<path d="M15.875 3.375H9.625C6.17322 3.375 3.375 6.17322 3.375 9.625V178.375C3.375 181.827 6.17322 184.625 9.625 184.625H15.875C19.3268 184.625 22.125 181.827 22.125 178.375V9.625C22.125 6.17322 19.3268 3.375 15.875 3.375Z" fill="#A78966"/>
<path d="M22.125 9.625V178.375C22.1201 180.031 21.46 181.618 20.289 182.789C19.1179 183.96 17.5311 184.62 15.875 184.625H9.625C9.09612 184.631 8.56933 184.558 8.0625 184.406C9.40074 184.061 10.5867 183.281 11.4349 182.19C12.283 181.099 12.7455 179.757 12.75 178.375V9.625C12.7455 8.24288 12.283 6.90123 11.4349 5.80994C10.5867 4.71865 9.40074 3.93928 8.0625 3.59375C8.56933 3.4425 9.09612 3.36875 9.625 3.375H15.875C17.5311 3.37995 19.1179 4.04002 20.289 5.21105C21.46 6.38208 22.1201 7.96892 22.125 9.625Z" fill="#806749"/>
<path d="M178.375 0.25H172.125C169.639 0.25 167.254 1.23772 165.496 2.99587C163.738 4.75403 162.75 7.1386 162.75 9.625V40.9562C160.061 38.8881 156.767 37.7615 153.375 37.75H62.175C62.5451 36.7492 62.7396 35.692 62.75 34.625C62.75 32.1386 61.7623 29.754 60.0041 27.9959C58.246 26.2377 55.8614 25.25 53.375 25.25H25.25V9.625C25.25 7.1386 24.2623 4.75403 22.5041 2.99587C20.746 1.23772 18.3614 0.25 15.875 0.25H9.625C7.1386 0.25 4.75403 1.23772 2.99587 2.99587C1.23772 4.75403 0.25 7.1386 0.25 9.625V178.375C0.25 180.861 1.23772 183.246 2.99587 185.004C4.75403 186.762 7.1386 187.75 9.625 187.75H15.875C18.3614 187.75 20.746 186.762 22.5041 185.004C24.2623 183.246 25.25 180.861 25.25 178.375V169H162.75V178.375C162.75 180.861 163.738 183.246 165.496 185.004C167.254 186.762 169.639 187.75 172.125 187.75H178.375C180.861 187.75 183.246 186.762 185.004 185.004C186.762 183.246 187.75 180.861 187.75 178.375V9.625C187.75 7.1386 186.762 4.75403 185.004 2.99587C183.246 1.23772 180.861 0.25 178.375 0.25ZM53.375 137.75H25.25V131.5H53.375C54.2038 131.5 54.9987 131.829 55.5847 132.415C56.1708 133.001 56.5 133.796 56.5 134.625C56.5 135.454 56.1708 136.249 55.5847 136.835C54.9987 137.421 54.2038 137.75 53.375 137.75ZM53.375 125.25H25.25V69H119V137.75H62.175C62.5451 136.749 62.7396 135.692 62.75 134.625C62.75 132.139 61.7623 129.754 60.0041 127.996C58.246 126.238 55.8614 125.25 53.375 125.25ZM25.25 62.75V44H119V62.75H25.25ZM162.75 112.75H125.25V94H162.75V112.75ZM162.75 87.75H125.25V69H162.75V87.75ZM125.25 119H162.75V140.956C160.061 138.888 156.767 137.761 153.375 137.75H125.25V119ZM162.75 53.375V62.75H125.25V44H153.375C155.861 44 158.246 44.9877 160.004 46.7459C161.762 48.504 162.75 50.8886 162.75 53.375ZM53.375 31.5C54.2038 31.5 54.9987 31.8292 55.5847 32.4153C56.1708 33.0013 56.5 33.7962 56.5 34.625C56.5 35.4538 56.1708 36.2487 55.5847 36.8347C54.9987 37.4208 54.2038 37.75 53.375 37.75H25.25V31.5H53.375ZM19 178.375C19 179.204 18.6708 179.999 18.0847 180.585C17.4987 181.171 16.7038 181.5 15.875 181.5H9.625C8.7962 181.5 8.00134 181.171 7.41529 180.585C6.82924 179.999 6.5 179.204 6.5 178.375V9.625C6.5 8.7962 6.82924 8.00134 7.41529 7.41529C8.00134 6.82924 8.7962 6.5 9.625 6.5H15.875C16.7038 6.5 17.4987 6.82924 18.0847 7.41529C18.6708 8.00134 19 8.7962 19 9.625V178.375ZM25.25 144H119V162.75H25.25V144ZM125.25 162.75V144H153.375C155.861 144 158.246 144.988 160.004 146.746C161.762 148.504 162.75 150.889 162.75 153.375V162.75H125.25ZM181.5 178.375C181.5 179.204 181.171 179.999 180.585 180.585C179.999 181.171 179.204 181.5 178.375 181.5H172.125C171.296 181.5 170.501 181.171 169.915 180.585C169.329 179.999 169 179.204 169 178.375V9.625C169 8.7962 169.329 8.00134 169.915 7.41529C170.501 6.82924 171.296 6.5 172.125 6.5H178.375C179.204 6.5 179.999 6.82924 180.585 7.41529C181.171 8.00134 181.5 8.7962 181.5 9.625V178.375Z" fill="black"/>
</svg>
