<svg width="40" height="40" viewBox="0 0 40 40" fill="none" xmlns="http://www.w3.org/2000/svg">
<rect width="40" height="40" rx="5" fill="#F7F2E7"/>
<path d="M32.6075 26.2373L28.886 22.5159C27.557 21.1868 25.2975 21.7185 24.7659 23.4462C24.3672 24.6424 23.0381 25.307 21.8419 25.0411C19.1838 24.3766 15.5953 20.921 14.9307 18.1299C14.532 16.9337 15.3295 15.6046 16.5256 15.2059C18.2534 14.6743 18.7851 12.4149 17.456 11.0858L13.7346 7.36439C12.6713 6.43404 11.0764 6.43404 10.1461 7.36439L7.62082 9.88964C5.09558 12.5478 7.88664 19.5919 14.1333 25.8386C20.38 32.0852 27.4241 35.0092 30.0822 32.351L32.6075 29.8258C33.5379 28.7625 33.5379 27.1676 32.6075 26.2373Z" fill="#A78966"/>
</svg>
