<svg width="188" height="188" viewBox="0 0 188 188" fill="none" xmlns="http://www.w3.org/2000/svg">
<g clip-path="url(#clip0)">
<path d="M49.8007 134.033C57.8908 134.033 64.4491 127.475 64.4491 119.385C64.4491 111.295 57.8908 104.736 49.8007 104.736C41.7106 104.736 35.1522 111.295 35.1522 119.385C35.1522 127.475 41.7106 134.033 49.8007 134.033Z" fill="#FED2A4"/>
<path d="M180.904 134.033H64.4491V118.774C64.4491 111.021 70.734 104.736 78.4871 104.736H151.607C167.788 104.736 180.904 117.853 180.904 134.033Z" fill="#FF7480"/>
<path d="M23.4375 134.033V84.2285H3.66211V183.838H183.838V134.033H23.4375Z" fill="#FFBE52"/>
<path d="M142.456 86.4258C165.311 86.4258 183.838 67.8985 183.838 45.0439C183.838 22.1894 165.311 3.66211 142.456 3.66211C119.601 3.66211 101.074 22.1894 101.074 45.0439C101.074 67.8985 119.601 86.4258 142.456 86.4258Z" fill="#93E7F8"/>
<path d="M184.367 130.414C182.558 113.937 168.558 101.074 151.607 101.074H128.539C126.516 101.074 124.876 102.714 124.876 104.736C124.876 106.759 126.516 108.398 128.539 108.398H151.607C164.499 108.398 175.199 117.965 176.981 130.371H68.1112V118.774C68.1112 113.053 72.7657 108.398 78.4871 108.398H99.2417C101.264 108.398 102.904 106.759 102.904 104.736C102.904 102.714 101.264 101.074 99.2417 101.074H78.4871C72.6826 101.074 67.5223 103.883 64.2927 108.212C60.9412 103.875 55.6934 101.074 49.8007 101.074C39.7042 101.074 31.4901 109.288 31.4901 119.385C31.4901 123.504 32.8579 127.308 35.1621 130.371H27.0996V84.2285C27.0996 82.2059 25.4597 80.5664 23.4375 80.5664H3.66211C1.63989 80.5664 0 82.2059 0 84.2285V183.838C0 185.86 1.63989 187.5 3.66211 187.5H183.838C185.86 187.5 187.5 185.86 187.5 183.838V134.033C187.5 132.191 186.138 130.671 184.367 130.414ZM38.8143 119.385C38.8143 113.327 43.7428 108.398 49.8007 108.398C55.8585 108.398 60.787 113.327 60.787 119.385C60.787 125.443 55.8585 130.371 49.8007 130.371C43.7428 130.371 38.8143 125.443 38.8143 119.385ZM180.176 180.176H7.32422V152.344H62.3174C64.3396 152.344 65.9795 150.704 65.9795 148.682C65.9795 146.659 64.3396 145.02 62.3174 145.02H7.32422V87.8906H19.7754V134.033C19.7754 136.055 21.4153 137.695 23.4375 137.695H64.4491H180.176V180.176Z" fill="black"/>
<path d="M111.299 102.147C110.618 102.828 110.229 103.773 110.229 104.736C110.229 105.699 110.618 106.644 111.299 107.325C111.984 108.006 112.924 108.398 113.892 108.398C114.855 108.398 115.8 108.007 116.48 107.325C117.162 106.644 117.554 105.699 117.554 104.736C117.554 103.773 117.162 102.828 116.48 102.147C115.8 101.466 114.855 101.074 113.892 101.074C112.924 101.074 111.984 101.466 111.299 102.147Z" fill="black"/>
<path d="M76.9666 152.344C77.9297 152.344 78.8709 151.952 79.5557 151.27C80.2365 150.59 80.6287 149.645 80.6287 148.682C80.6287 147.719 80.2368 146.774 79.5557 146.093C78.8745 145.411 77.9297 145.02 76.9666 145.02C75.9998 145.02 75.0586 145.411 74.3774 146.093C73.6926 146.774 73.3044 147.719 73.3044 148.682C73.3044 149.645 73.6926 150.59 74.3774 151.27C75.0586 151.952 76.0034 152.344 76.9666 152.344Z" fill="black"/>
<path d="M62.993 37.1587H70.3938L60.4036 47.1489C59.3566 48.1963 59.0431 49.7714 59.6096 51.1395C60.1765 52.5081 61.5117 53.4001 62.993 53.4001H79.2349C81.2571 53.4001 82.897 51.7606 82.897 49.738C82.897 47.7155 81.2571 46.0759 79.2349 46.0759H71.8341L81.8243 36.0857C82.8713 35.0383 83.1848 33.4633 82.6183 32.0951C82.0514 30.7266 80.7162 29.8345 79.2349 29.8345H62.993C60.9708 29.8345 59.3309 31.474 59.3309 33.4966C59.3309 35.5192 60.9705 37.1587 62.993 37.1587Z" fill="black"/>
<path d="M51.3915 76.2894H54.1516L48.802 81.639C47.755 82.6864 47.4415 84.2615 48.0081 85.63C48.575 86.9985 49.9102 87.8906 51.3915 87.8906H62.993C65.0153 87.8906 66.6552 86.2511 66.6552 84.2285C66.6552 82.2059 65.0153 80.5664 62.993 80.5664H60.2329L65.5825 75.2168C66.6295 74.1694 66.943 72.5944 66.3765 71.2258C65.8096 69.8573 64.4744 68.9652 62.993 68.9652H51.3915C49.3693 68.9652 47.7294 70.6047 47.7294 72.6273C47.7294 74.6499 49.3693 76.2894 51.3915 76.2894Z" fill="black"/>
<path d="M142.456 90.0879C167.293 90.0879 187.5 69.8811 187.5 45.0439C187.5 20.2068 167.293 0 142.456 0C117.619 0 97.4121 20.2068 97.4121 45.0439C97.4121 69.8811 117.619 90.0879 142.456 90.0879ZM142.456 7.32422C163.255 7.32422 180.176 24.2454 180.176 45.0439C180.176 65.8425 163.255 82.7637 142.456 82.7637C121.657 82.7637 104.736 65.8425 104.736 45.0439C104.736 24.2454 121.657 7.32422 142.456 7.32422Z" fill="black"/>
<path d="M169.306 48.7397H171.853C173.875 48.7397 175.515 47.1002 175.515 45.0776C175.515 43.0551 173.875 41.4155 171.853 41.4155H169.306C167.283 41.4155 165.643 43.0551 165.643 45.0776C165.643 47.1002 167.283 48.7397 169.306 48.7397Z" fill="black"/>
<path d="M119.269 45.0103C119.269 42.9877 117.629 41.3481 115.607 41.3481H113.06C111.037 41.3481 109.397 42.9877 109.397 45.0103C109.397 47.0328 111.037 48.6724 113.06 48.6724H115.607C117.629 48.6724 119.269 47.0328 119.269 45.0103Z" fill="black"/>
<path d="M142.422 68.2313C140.4 68.2313 138.76 69.8708 138.76 71.8934V74.4408C138.76 76.4634 140.4 78.1029 142.422 78.1029C144.445 78.1029 146.084 76.4634 146.084 74.4408V71.8934C146.084 69.8708 144.445 68.2313 142.422 68.2313Z" fill="black"/>
<path d="M131.225 48.7061H142.456C144.477 48.7061 146.116 47.0691 146.118 45.0487L146.152 18.3153C146.154 16.2927 144.517 14.651 142.495 14.6484C142.493 14.6484 142.491 14.6484 142.49 14.6484C140.469 14.6484 138.83 16.285 138.828 18.3058L138.799 41.3818H131.225C129.203 41.3818 127.563 43.0214 127.563 45.0439C127.563 47.0665 129.203 48.7061 131.225 48.7061Z" fill="black"/>
</g>
<defs>
<clipPath id="clip0">
<rect width="187.5" height="187.5" fill="white"/>
</clipPath>
</defs>
</svg>
