<svg width="50" height="50" viewBox="0 0 50 50" fill="none" xmlns="http://www.w3.org/2000/svg">
<path d="M35.7347 31.4466H33.462L32.6758 30.6604C35.4775 27.4157 37.1641 23.199 37.1641 18.5821C37.1641 8.31904 28.845 0 18.5821 0C8.31917 0 0 8.31904 0 18.5821C0 28.8451 8.31904 37.1642 18.5821 37.1642C23.199 37.1642 27.4157 35.4775 30.6604 32.6902L31.4466 33.4764V35.7347L45.7404 50L50 45.7404L35.7347 31.4466ZM18.5821 31.4466C11.4781 31.4466 5.7176 25.6861 5.7176 18.5821C5.7176 11.4781 11.4781 5.7176 18.5821 5.7176C25.6861 5.7176 31.4466 11.4781 31.4466 18.5821C31.4466 25.6861 25.6861 31.4466 18.5821 31.4466Z" fill="white"/>
</svg>
